<svg width="33" height="31" viewBox="0 0 33 31" fill="none" xmlns="http://www.w3.org/2000/svg">
<path d="M32.8371 10.8865C32.8371 9.73069 32.2431 8.71932 31.328 8.15745L18.421 0.596242C17.4257 0.00226185 16.1735 0.00226185 15.1782 0.596242L2.27118 8.15745C1.35613 8.71932 0.746094 9.73069 0.746094 10.8865V26.9401C0.746094 28.7059 2.19091 30.1508 3.9568 30.1508H29.6424C31.4083 30.1508 32.8531 28.7059 32.8531 26.9401L32.8371 10.8865ZM15.0979 17.8538L3.53941 10.6297L15.1782 3.80694C16.1735 3.21296 17.4257 3.21296 18.421 3.80694L30.0598 10.6297L18.5013 17.8538C17.4578 18.4959 16.1414 18.4959 15.0979 17.8538Z" fill="#fff"/>
</svg>
