<svg width="33" height="31" viewBox="0 0 33 31" fill="none" xmlns="http://www.w3.org/2000/svg">
<path d="M27.7072 20.6087L23.4653 20.1244C22.4466 20.0075 21.4446 20.3582 20.7265 21.0763L17.6536 24.1492C12.9274 21.7443 9.05291 17.8866 6.64805 13.1436L9.73762 10.0541C10.4557 9.33596 10.8064 8.33394 10.6895 7.31522L10.2052 3.10672C10.0048 1.41999 8.5853 0.150757 6.88186 0.150757H3.99269C2.10555 0.150757 0.535717 1.72059 0.652619 3.60773C1.53774 17.8699 12.9441 29.2595 27.1895 30.1446C29.0767 30.2615 30.6465 28.6917 30.6465 26.8045V23.9154C30.6632 22.2286 29.394 20.8091 27.7072 20.6087Z" fill="#fff"/>
</svg>
